<svg xmlns="http://www.w3.org/2000/svg" version="1.1" xmlns:xlink="http://www.w3.org/1999/xlink"
    xmlns:svgjs="http://svgjs.dev/svgjs" width="1440" height="560" preserveAspectRatio="none" viewBox="0 0 1440 560">
    <g mask="url(&quot;#SvgjsMask1006&quot;)" fill="none">
        <rect width="1440" height="560" x="0" y="0" fill="rgba(246, 246, 246, 0.6627450980392157)"></rect>
        <path d="M-63.99 372.37L-63.99 372.37" stroke="rgba(217, 217, 218, 1)" stroke-width="1.5"></path>
        <path d="M-63.99 372.37L68.27 346.16" stroke="rgba(217, 217, 218, 1)" stroke-width="1.5"></path>
        <path d="M-63.99 372.37L-63.69 522.88" stroke="rgba(217, 217, 218, 1)" stroke-width="1.5"></path>
        <path d="M-63.99 372.37L109.74 499.82" stroke="rgba(217, 217, 218, 1)" stroke-width="1.5"></path>
        <path d="M-63.69 522.88L-63.69 522.88" stroke="rgba(217, 217, 218, 1)" stroke-width="1.5"></path>
        <path d="M-63.69 522.88L41.69 641.35" stroke="rgba(217, 217, 218, 1)" stroke-width="1.5"></path>
        <path d="M-63.69 522.88L-76.09 681.07" stroke="rgba(217, 217, 218, 1)" stroke-width="1.5"></path>
        <path d="M-63.69 522.88L109.74 499.82" stroke="rgba(217, 217, 218, 1)" stroke-width="1.5"></path>
        <path d="M-63.69 522.88L68.27 346.16" stroke="rgba(217, 217, 218, 1)" stroke-width="1.5"></path>
        <path d="M-76.09 681.07L-76.09 681.07" stroke="rgba(217, 217, 218, 1)" stroke-width="1.5"></path>
        <path d="M-76.09 681.07L41.69 641.35" stroke="rgba(217, 217, 218, 1)" stroke-width="1.5"></path>
        <path d="M-76.09 681.07L109.74 499.82" stroke="rgba(217, 217, 218, 1)" stroke-width="1.5"></path>
        <path d="M-76.09 681.07L216.66 704.06" stroke="rgba(217, 217, 218, 1)" stroke-width="1.5"></path>
        <path d="M68.27 346.16L68.27 346.16" stroke="rgba(217, 217, 218, 1)" stroke-width="1.5"></path>
        <path d="M68.27 346.16L218 349.33" stroke="rgba(217, 217, 218, 1)" stroke-width="1.5"></path>
        <path d="M68.27 346.16L109.74 499.82" stroke="rgba(217, 217, 218, 1)" stroke-width="1.5"></path>
        <path d="M109.74 499.82L109.74 499.82" stroke="rgba(217, 217, 218, 1)" stroke-width="1.5"></path>
        <path d="M109.74 499.82L225.19 532.59" stroke="rgba(217, 217, 218, 1)" stroke-width="1.5"></path>
        <path d="M109.74 499.82L41.69 641.35" stroke="rgba(217, 217, 218, 1)" stroke-width="1.5"></path>
        <path d="M41.69 641.35L41.69 641.35" stroke="rgba(217, 217, 218, 1)" stroke-width="1.5"></path>
        <path d="M218 349.33L218 349.33" stroke="rgba(217, 217, 218, 1)" stroke-width="1.5"></path>
        <path d="M218 349.33L225.19 532.59" stroke="rgba(217, 217, 218, 1)" stroke-width="1.5"></path>
        <path d="M218 349.33L109.74 499.82" stroke="rgba(217, 217, 218, 1)" stroke-width="1.5"></path>
        <path d="M218 349.33L410.76 409.2" stroke="rgba(217, 217, 218, 1)" stroke-width="1.5"></path>
        <path d="M218 349.33L370.38 522.63" stroke="rgba(217, 217, 218, 1)" stroke-width="1.5"></path>
        <path d="M225.19 532.59L225.19 532.59" stroke="rgba(217, 217, 218, 1)" stroke-width="1.5"></path>
        <path d="M225.19 532.59L370.38 522.63" stroke="rgba(217, 217, 218, 1)" stroke-width="1.5"></path>
        <path d="M225.19 532.59L216.66 704.06" stroke="rgba(217, 217, 218, 1)" stroke-width="1.5"></path>
        <path d="M225.19 532.59L41.69 641.35" stroke="rgba(217, 217, 218, 1)" stroke-width="1.5"></path>
        <path d="M225.19 532.59L410.76 409.2" stroke="rgba(217, 217, 218, 1)" stroke-width="1.5"></path>
        <path d="M216.66 704.06L216.66 704.06" stroke="rgba(217, 217, 218, 1)" stroke-width="1.5"></path>
        <path d="M216.66 704.06L41.69 641.35" stroke="rgba(217, 217, 218, 1)" stroke-width="1.5"></path>
        <path d="M216.66 704.06L407.54 685.75" stroke="rgba(217, 217, 218, 1)" stroke-width="1.5"></path>
        <path d="M216.66 704.06L109.74 499.82" stroke="rgba(217, 217, 218, 1)" stroke-width="1.5"></path>
        <path d="M216.66 704.06L370.38 522.63" stroke="rgba(217, 217, 218, 1)" stroke-width="1.5"></path>
        <path d="M410.76 409.2L410.76 409.2" stroke="rgba(217, 217, 218, 1)" stroke-width="1.5"></path>
        <path d="M410.76 409.2L497.64 384.03" stroke="rgba(217, 217, 218, 1)" stroke-width="1.5"></path>
        <path d="M410.76 409.2L370.38 522.63" stroke="rgba(217, 217, 218, 1)" stroke-width="1.5"></path>
        <path d="M410.76 409.2L497.5 539.44" stroke="rgba(217, 217, 218, 1)" stroke-width="1.5"></path>
        <path d="M370.38 522.63L370.38 522.63" stroke="rgba(217, 217, 218, 1)" stroke-width="1.5"></path>
        <path d="M370.38 522.63L497.5 539.44" stroke="rgba(217, 217, 218, 1)" stroke-width="1.5"></path>
        <path d="M407.54 685.75L407.54 685.75" stroke="rgba(217, 217, 218, 1)" stroke-width="1.5"></path>
        <path d="M407.54 685.75L511.02 669.99" stroke="rgba(217, 217, 218, 1)" stroke-width="1.5"></path>
        <path d="M407.54 685.75L370.38 522.63" stroke="rgba(217, 217, 218, 1)" stroke-width="1.5"></path>
        <path d="M497.64 384.03L497.64 384.03" stroke="rgba(217, 217, 218, 1)" stroke-width="1.5"></path>
        <path d="M497.64 384.03L497.5 539.44" stroke="rgba(217, 217, 218, 1)" stroke-width="1.5"></path>
        <path d="M497.64 384.03L370.38 522.63" stroke="rgba(217, 217, 218, 1)" stroke-width="1.5"></path>
        <path d="M497.64 384.03L694.96 409.33" stroke="rgba(217, 217, 218, 1)" stroke-width="1.5"></path>
        <path d="M497.64 384.03L672.37 488.75" stroke="rgba(217, 217, 218, 1)" stroke-width="1.5"></path>
        <path d="M497.64 384.03L690.31 225.55" stroke="rgba(217, 217, 218, 1)" stroke-width="1.5"></path>
        <path d="M497.5 539.44L497.5 539.44" stroke="rgba(217, 217, 218, 1)" stroke-width="1.5"></path>
        <path d="M497.5 539.44L511.02 669.99" stroke="rgba(217, 217, 218, 1)" stroke-width="1.5"></path>
        <path d="M497.5 539.44L407.54 685.75" stroke="rgba(217, 217, 218, 1)" stroke-width="1.5"></path>
        <path d="M511.02 669.99L511.02 669.99" stroke="rgba(217, 217, 218, 1)" stroke-width="1.5"></path>
        <path d="M511.02 669.99L668.15 644.7" stroke="rgba(217, 217, 218, 1)" stroke-width="1.5"></path>
        <path d="M511.02 669.99L370.38 522.63" stroke="rgba(217, 217, 218, 1)" stroke-width="1.5"></path>
        <path d="M690.31 225.55L690.31 225.55" stroke="rgba(217, 217, 218, 1)" stroke-width="1.5"></path>
        <path d="M690.31 225.55L856.01 221.55" stroke="rgba(217, 217, 218, 1)" stroke-width="1.5"></path>
        <path d="M690.31 225.55L694.96 409.33" stroke="rgba(217, 217, 218, 1)" stroke-width="1.5"></path>
        <path d="M690.31 225.55L838.84 94.34" stroke="rgba(217, 217, 218, 1)" stroke-width="1.5"></path>
        <path d="M690.31 225.55L829.11 410.69" stroke="rgba(217, 217, 218, 1)" stroke-width="1.5"></path>
        <path d="M694.96 409.33L694.96 409.33" stroke="rgba(217, 217, 218, 1)" stroke-width="1.5"></path>
        <path d="M694.96 409.33L672.37 488.75" stroke="rgba(217, 217, 218, 1)" stroke-width="1.5"></path>
        <path d="M694.96 409.33L829.11 410.69" stroke="rgba(217, 217, 218, 1)" stroke-width="1.5"></path>
        <path d="M694.96 409.33L817.13 499.44" stroke="rgba(217, 217, 218, 1)" stroke-width="1.5"></path>
        <path d="M672.37 488.75L672.37 488.75" stroke="rgba(217, 217, 218, 1)" stroke-width="1.5"></path>
        <path d="M672.37 488.75L817.13 499.44" stroke="rgba(217, 217, 218, 1)" stroke-width="1.5"></path>
        <path d="M668.15 644.7L668.15 644.7" stroke="rgba(217, 217, 218, 1)" stroke-width="1.5"></path>
        <path d="M668.15 644.7L672.37 488.75" stroke="rgba(217, 217, 218, 1)" stroke-width="1.5"></path>
        <path d="M668.15 644.7L842.17 657.16" stroke="rgba(217, 217, 218, 1)" stroke-width="1.5"></path>
        <path d="M838.84 94.34L838.84 94.34" stroke="rgba(217, 217, 218, 1)" stroke-width="1.5"></path>
        <path d="M838.84 94.34L856.01 221.55" stroke="rgba(217, 217, 218, 1)" stroke-width="1.5"></path>
        <path d="M838.84 94.34L972.11 51.1" stroke="rgba(217, 217, 218, 1)" stroke-width="1.5"></path>
        <path d="M838.84 94.34L958.25 202.28" stroke="rgba(217, 217, 218, 1)" stroke-width="1.5"></path>
        <path d="M856.01 221.55L856.01 221.55" stroke="rgba(217, 217, 218, 1)" stroke-width="1.5"></path>
        <path d="M856.01 221.55L958.25 202.28" stroke="rgba(217, 217, 218, 1)" stroke-width="1.5"></path>
        <path d="M856.01 221.55L829.11 410.69" stroke="rgba(217, 217, 218, 1)" stroke-width="1.5"></path>
        <path d="M856.01 221.55L972.11 51.1" stroke="rgba(217, 217, 218, 1)" stroke-width="1.5"></path>
        <path d="M856.01 221.55L996.89 372.58" stroke="rgba(217, 217, 218, 1)" stroke-width="1.5"></path>
        <path d="M829.11 410.69L829.11 410.69" stroke="rgba(217, 217, 218, 1)" stroke-width="1.5"></path>
        <path d="M829.11 410.69L817.13 499.44" stroke="rgba(217, 217, 218, 1)" stroke-width="1.5"></path>
        <path d="M829.11 410.69L996.89 372.58" stroke="rgba(217, 217, 218, 1)" stroke-width="1.5"></path>
        <path d="M829.11 410.69L672.37 488.75" stroke="rgba(217, 217, 218, 1)" stroke-width="1.5"></path>
        <path d="M817.13 499.44L817.13 499.44" stroke="rgba(217, 217, 218, 1)" stroke-width="1.5"></path>
        <path d="M817.13 499.44L842.17 657.16" stroke="rgba(217, 217, 218, 1)" stroke-width="1.5"></path>
        <path d="M817.13 499.44L985.37 522.65" stroke="rgba(217, 217, 218, 1)" stroke-width="1.5"></path>
        <path d="M842.17 657.16L842.17 657.16" stroke="rgba(217, 217, 218, 1)" stroke-width="1.5"></path>
        <path d="M842.17 657.16L1004.6 661.95" stroke="rgba(217, 217, 218, 1)" stroke-width="1.5"></path>
        <path d="M982.89 -58.47L982.89 -58.47" stroke="rgba(217, 217, 218, 1)" stroke-width="1.5"></path>
        <path d="M982.89 -58.47L972.11 51.1" stroke="rgba(217, 217, 218, 1)" stroke-width="1.5"></path>
        <path d="M982.89 -58.47L1148.47 -93.75" stroke="rgba(217, 217, 218, 1)" stroke-width="1.5"></path>
        <path d="M982.89 -58.47L1127.25 56.64" stroke="rgba(217, 217, 218, 1)" stroke-width="1.5"></path>
        <path d="M972.11 51.1L972.11 51.1" stroke="rgba(217, 217, 218, 1)" stroke-width="1.5"></path>
        <path d="M972.11 51.1L958.25 202.28" stroke="rgba(217, 217, 218, 1)" stroke-width="1.5"></path>
        <path d="M972.11 51.1L1127.25 56.64" stroke="rgba(217, 217, 218, 1)" stroke-width="1.5"></path>
        <path d="M972.11 51.1L1119.31 208.4" stroke="rgba(217, 217, 218, 1)" stroke-width="1.5"></path>
        <path d="M958.25 202.28L958.25 202.28" stroke="rgba(217, 217, 218, 1)" stroke-width="1.5"></path>
        <path d="M996.89 372.58L996.89 372.58" stroke="rgba(217, 217, 218, 1)" stroke-width="1.5"></path>
        <path d="M996.89 372.58L1113.01 345.31" stroke="rgba(217, 217, 218, 1)" stroke-width="1.5"></path>
        <path d="M996.89 372.58L985.37 522.65" stroke="rgba(217, 217, 218, 1)" stroke-width="1.5"></path>
        <path d="M985.37 522.65L985.37 522.65" stroke="rgba(217, 217, 218, 1)" stroke-width="1.5"></path>
        <path d="M985.37 522.65L1004.6 661.95" stroke="rgba(217, 217, 218, 1)" stroke-width="1.5"></path>
        <path d="M1004.6 661.95L1004.6 661.95" stroke="rgba(217, 217, 218, 1)" stroke-width="1.5"></path>
        <path d="M1004.6 661.95L1146.5 690.95" stroke="rgba(217, 217, 218, 1)" stroke-width="1.5"></path>
        <path d="M1004.6 661.95L1139.97 506.81" stroke="rgba(217, 217, 218, 1)" stroke-width="1.5"></path>
        <path d="M1148.47 -93.75L1148.47 -93.75" stroke="rgba(217, 217, 218, 1)" stroke-width="1.5"></path>
        <path d="M1148.47 -93.75L1291.14 -91.06" stroke="rgba(217, 217, 218, 1)" stroke-width="1.5"></path>
        <path d="M1148.47 -93.75L1127.25 56.64" stroke="rgba(217, 217, 218, 1)" stroke-width="1.5"></path>
        <path d="M1127.25 56.64L1127.25 56.64" stroke="rgba(217, 217, 218, 1)" stroke-width="1.5"></path>
        <path d="M1127.25 56.64L1263.19 101.57" stroke="rgba(217, 217, 218, 1)" stroke-width="1.5"></path>
        <path d="M1127.25 56.64L1119.31 208.4" stroke="rgba(217, 217, 218, 1)" stroke-width="1.5"></path>
        <path d="M1119.31 208.4L1119.31 208.4" stroke="rgba(217, 217, 218, 1)" stroke-width="1.5"></path>
        <path d="M1119.31 208.4L1113.01 345.31" stroke="rgba(217, 217, 218, 1)" stroke-width="1.5"></path>
        <path d="M1119.31 208.4L958.25 202.28" stroke="rgba(217, 217, 218, 1)" stroke-width="1.5"></path>
        <path d="M1119.31 208.4L1285.42 256.59" stroke="rgba(217, 217, 218, 1)" stroke-width="1.5"></path>
        <path d="M1119.31 208.4L1263.19 101.57" stroke="rgba(217, 217, 218, 1)" stroke-width="1.5"></path>
        <path d="M1113.01 345.31L1113.01 345.31" stroke="rgba(217, 217, 218, 1)" stroke-width="1.5"></path>
        <path d="M1113.01 345.31L1271.45 347.93" stroke="rgba(217, 217, 218, 1)" stroke-width="1.5"></path>
        <path d="M1139.97 506.81L1139.97 506.81" stroke="rgba(217, 217, 218, 1)" stroke-width="1.5"></path>
        <path d="M1139.97 506.81L985.37 522.65" stroke="rgba(217, 217, 218, 1)" stroke-width="1.5"></path>
        <path d="M1139.97 506.81L1293.93 562.36" stroke="rgba(217, 217, 218, 1)" stroke-width="1.5"></path>
        <path d="M1139.97 506.81L1113.01 345.31" stroke="rgba(217, 217, 218, 1)" stroke-width="1.5"></path>
        <path d="M1139.97 506.81L1146.5 690.95" stroke="rgba(217, 217, 218, 1)" stroke-width="1.5"></path>
        <path d="M1146.5 690.95L1146.5 690.95" stroke="rgba(217, 217, 218, 1)" stroke-width="1.5"></path>
        <path d="M1146.5 690.95L1299.46 694.83" stroke="rgba(217, 217, 218, 1)" stroke-width="1.5"></path>
        <path d="M1146.5 690.95L1293.93 562.36" stroke="rgba(217, 217, 218, 1)" stroke-width="1.5"></path>
        <path d="M1146.5 690.95L985.37 522.65" stroke="rgba(217, 217, 218, 1)" stroke-width="1.5"></path>
        <path d="M1291.14 -91.06L1291.14 -91.06" stroke="rgba(217, 217, 218, 1)" stroke-width="1.5"></path>
        <path d="M1291.14 -91.06L1419.86 -86.06" stroke="rgba(217, 217, 218, 1)" stroke-width="1.5"></path>
        <path d="M1291.14 -91.06L1263.19 101.57" stroke="rgba(217, 217, 218, 1)" stroke-width="1.5"></path>
        <path d="M1263.19 101.57L1263.19 101.57" stroke="rgba(217, 217, 218, 1)" stroke-width="1.5"></path>
        <path d="M1263.19 101.57L1285.42 256.59" stroke="rgba(217, 217, 218, 1)" stroke-width="1.5"></path>
        <path d="M1285.42 256.59L1285.42 256.59" stroke="rgba(217, 217, 218, 1)" stroke-width="1.5"></path>
        <path d="M1285.42 256.59L1271.45 347.93" stroke="rgba(217, 217, 218, 1)" stroke-width="1.5"></path>
        <path d="M1285.42 256.59L1437.48 345.25" stroke="rgba(217, 217, 218, 1)" stroke-width="1.5"></path>
        <path d="M1285.42 256.59L1113.01 345.31" stroke="rgba(217, 217, 218, 1)" stroke-width="1.5"></path>
        <path d="M1285.42 256.59L1127.25 56.64" stroke="rgba(217, 217, 218, 1)" stroke-width="1.5"></path>
        <path d="M1271.45 347.93L1271.45 347.93" stroke="rgba(217, 217, 218, 1)" stroke-width="1.5"></path>
        <path d="M1271.45 347.93L1437.48 345.25" stroke="rgba(217, 217, 218, 1)" stroke-width="1.5"></path>
        <path d="M1293.93 562.36L1293.93 562.36" stroke="rgba(217, 217, 218, 1)" stroke-width="1.5"></path>
        <path d="M1293.93 562.36L1299.46 694.83" stroke="rgba(217, 217, 218, 1)" stroke-width="1.5"></path>
        <path d="M1293.93 562.36L1408.19 639.01" stroke="rgba(217, 217, 218, 1)" stroke-width="1.5"></path>
        <path d="M1293.93 562.36L1456.12 520.67" stroke="rgba(217, 217, 218, 1)" stroke-width="1.5"></path>
        <path d="M1299.46 694.83L1299.46 694.83" stroke="rgba(217, 217, 218, 1)" stroke-width="1.5"></path>
        <path d="M1299.46 694.83L1408.19 639.01" stroke="rgba(217, 217, 218, 1)" stroke-width="1.5"></path>
        <path d="M1299.46 694.83L1456.12 520.67" stroke="rgba(217, 217, 218, 1)" stroke-width="1.5"></path>
        <path d="M1299.46 694.83L1139.97 506.81" stroke="rgba(217, 217, 218, 1)" stroke-width="1.5"></path>
        <path d="M1419.86 -86.06L1419.86 -86.06" stroke="rgba(217, 217, 218, 1)" stroke-width="1.5"></path>
        <path d="M1437.48 345.25L1437.48 345.25" stroke="rgba(217, 217, 218, 1)" stroke-width="1.5"></path>
        <path d="M1437.48 345.25L1560.41 364.57" stroke="rgba(217, 217, 218, 1)" stroke-width="1.5"></path>
        <path d="M1437.48 345.25L1456.12 520.67" stroke="rgba(217, 217, 218, 1)" stroke-width="1.5"></path>
        <path d="M1456.12 520.67L1456.12 520.67" stroke="rgba(217, 217, 218, 1)" stroke-width="1.5"></path>
        <path d="M1456.12 520.67L1562.11 512.38" stroke="rgba(217, 217, 218, 1)" stroke-width="1.5"></path>
        <path d="M1456.12 520.67L1408.19 639.01" stroke="rgba(217, 217, 218, 1)" stroke-width="1.5"></path>
        <path d="M1456.12 520.67L1574.87 665.15" stroke="rgba(217, 217, 218, 1)" stroke-width="1.5"></path>
        <path d="M1456.12 520.67L1560.41 364.57" stroke="rgba(217, 217, 218, 1)" stroke-width="1.5"></path>
        <path d="M1408.19 639.01L1408.19 639.01" stroke="rgba(217, 217, 218, 1)" stroke-width="1.5"></path>
        <path d="M1572.86 -99.27L1572.86 -99.27" stroke="rgba(217, 217, 218, 1)" stroke-width="1.5"></path>
        <path d="M1572.86 -99.27L1419.86 -86.06" stroke="rgba(217, 217, 218, 1)" stroke-width="1.5"></path>
        <path d="M1572.86 -99.27L1291.14 -91.06" stroke="rgba(217, 217, 218, 1)" stroke-width="1.5"></path>
        <path d="M1572.86 -99.27L1609.97 257.91" stroke="rgba(217, 217, 218, 1)" stroke-width="1.5"></path>
        <path d="M1572.86 -99.27L1263.19 101.57" stroke="rgba(217, 217, 218, 1)" stroke-width="1.5"></path>
        <path d="M1572.86 -99.27L1148.47 -93.75" stroke="rgba(217, 217, 218, 1)" stroke-width="1.5"></path>
        <path d="M1572.86 -99.27L1285.42 256.59" stroke="rgba(217, 217, 218, 1)" stroke-width="1.5"></path>
        <path d="M1609.97 257.91L1609.97 257.91" stroke="rgba(217, 217, 218, 1)" stroke-width="1.5"></path>
        <path d="M1609.97 257.91L1560.41 364.57" stroke="rgba(217, 217, 218, 1)" stroke-width="1.5"></path>
        <path d="M1609.97 257.91L1437.48 345.25" stroke="rgba(217, 217, 218, 1)" stroke-width="1.5"></path>
        <path d="M1609.97 257.91L1562.11 512.38" stroke="rgba(217, 217, 218, 1)" stroke-width="1.5"></path>
        <path d="M1609.97 257.91L1456.12 520.67" stroke="rgba(217, 217, 218, 1)" stroke-width="1.5"></path>
        <path d="M1560.41 364.57L1560.41 364.57" stroke="rgba(217, 217, 218, 1)" stroke-width="1.5"></path>
        <path d="M1562.11 512.38L1562.11 512.38" stroke="rgba(217, 217, 218, 1)" stroke-width="1.5"></path>
        <path d="M1562.11 512.38L1560.41 364.57" stroke="rgba(217, 217, 218, 1)" stroke-width="1.5"></path>
        <path d="M1562.11 512.38L1574.87 665.15" stroke="rgba(217, 217, 218, 1)" stroke-width="1.5"></path>
        <path d="M1562.11 512.38L1408.19 639.01" stroke="rgba(217, 217, 218, 1)" stroke-width="1.5"></path>
        <path d="M1562.11 512.38L1437.48 345.25" stroke="rgba(217, 217, 218, 1)" stroke-width="1.5"></path>
        <path d="M1574.87 665.15L1574.87 665.15" stroke="rgba(217, 217, 218, 1)" stroke-width="1.5"></path>
        <path d="M1574.87 665.15L1408.19 639.01" stroke="rgba(217, 217, 218, 1)" stroke-width="1.5"></path>
        <path d="M1574.87 665.15L1299.46 694.83" stroke="rgba(217, 217, 218, 1)" stroke-width="1.5"></path>
        <path d="M1574.87 665.15L1293.93 562.36" stroke="rgba(217, 217, 218, 1)" stroke-width="1.5"></path>
        <path d="M1574.87 665.15L1560.41 364.57" stroke="rgba(217, 217, 218, 1)" stroke-width="1.5"></path>
        <circle r="5" cx="-63.99" cy="372.37" fill="rgba(217, 217, 218, 1)"></circle>
        <circle r="5" cx="-63.69" cy="522.88" fill="rgba(217, 217, 218, 1)"></circle>
        <circle r="5" cx="-76.09" cy="681.07" fill="rgba(217, 217, 218, 1)"></circle>
        <circle r="5" cx="68.27" cy="346.16" fill="rgba(217, 217, 218, 1)"></circle>
        <circle r="5" cx="109.74" cy="499.82" fill="rgba(217, 217, 218, 1)"></circle>
        <circle r="5" cx="41.69" cy="641.35" fill="rgba(217, 217, 218, 1)"></circle>
        <circle r="5" cx="218" cy="349.33" fill="rgba(217, 217, 218, 1)"></circle>
        <circle r="5" cx="225.19" cy="532.59" fill="rgba(217, 217, 218, 1)"></circle>
        <circle r="5" cx="216.66" cy="704.06" fill="rgba(217, 217, 218, 1)"></circle>
        <circle r="5" cx="410.76" cy="409.2" fill="rgba(217, 217, 218, 1)"></circle>
        <circle r="5" cx="370.38" cy="522.63" fill="rgba(217, 217, 218, 1)"></circle>
        <circle r="5" cx="407.54" cy="685.75" fill="rgba(217, 217, 218, 1)"></circle>
        <circle r="5" cx="497.64" cy="384.03" fill="rgba(217, 217, 218, 1)"></circle>
        <circle r="5" cx="497.5" cy="539.44" fill="rgba(217, 217, 218, 1)"></circle>
        <circle r="5" cx="511.02" cy="669.99" fill="rgba(217, 217, 218, 1)"></circle>
        <circle r="5" cx="690.31" cy="225.55" fill="rgba(217, 217, 218, 1)"></circle>
        <circle r="5" cx="694.96" cy="409.33" fill="rgba(217, 217, 218, 1)"></circle>
        <circle r="5" cx="672.37" cy="488.75" fill="rgba(217, 217, 218, 1)"></circle>
        <circle r="5" cx="668.15" cy="644.7" fill="rgba(217, 217, 218, 1)"></circle>
        <circle r="5" cx="838.84" cy="94.34" fill="rgba(217, 217, 218, 1)"></circle>
        <circle r="5" cx="856.01" cy="221.55" fill="rgba(217, 217, 218, 1)"></circle>
        <circle r="5" cx="829.11" cy="410.69" fill="rgba(217, 217, 218, 1)"></circle>
        <circle r="5" cx="817.13" cy="499.44" fill="rgba(217, 217, 218, 1)"></circle>
        <circle r="5" cx="842.17" cy="657.16" fill="rgba(217, 217, 218, 1)"></circle>
        <circle r="5" cx="982.89" cy="-58.47" fill="rgba(217, 217, 218, 1)"></circle>
        <circle r="5" cx="972.11" cy="51.1" fill="rgba(217, 217, 218, 1)"></circle>
        <circle r="5" cx="958.25" cy="202.28" fill="rgba(217, 217, 218, 1)"></circle>
        <circle r="5" cx="996.89" cy="372.58" fill="rgba(217, 217, 218, 1)"></circle>
        <circle r="5" cx="985.37" cy="522.65" fill="rgba(217, 217, 218, 1)"></circle>
        <circle r="5" cx="1004.6" cy="661.95" fill="rgba(217, 217, 218, 1)"></circle>
        <circle r="5" cx="1148.47" cy="-93.75" fill="rgba(217, 217, 218, 1)"></circle>
        <circle r="5" cx="1127.25" cy="56.64" fill="rgba(217, 217, 218, 1)"></circle>
        <circle r="5" cx="1119.31" cy="208.4" fill="rgba(217, 217, 218, 1)"></circle>
        <circle r="5" cx="1113.01" cy="345.31" fill="rgba(217, 217, 218, 1)"></circle>
        <circle r="5" cx="1139.97" cy="506.81" fill="rgba(217, 217, 218, 1)"></circle>
        <circle r="5" cx="1146.5" cy="690.95" fill="rgba(217, 217, 218, 1)"></circle>
        <circle r="5" cx="1291.14" cy="-91.06" fill="rgba(217, 217, 218, 1)"></circle>
        <circle r="5" cx="1263.19" cy="101.57" fill="rgba(217, 217, 218, 1)"></circle>
        <circle r="5" cx="1285.42" cy="256.59" fill="rgba(217, 217, 218, 1)"></circle>
        <circle r="5" cx="1271.45" cy="347.93" fill="rgba(217, 217, 218, 1)"></circle>
        <circle r="5" cx="1293.93" cy="562.36" fill="rgba(217, 217, 218, 1)"></circle>
        <circle r="5" cx="1299.46" cy="694.83" fill="rgba(217, 217, 218, 1)"></circle>
        <circle r="5" cx="1419.86" cy="-86.06" fill="rgba(217, 217, 218, 1)"></circle>
        <circle r="5" cx="1437.48" cy="345.25" fill="rgba(217, 217, 218, 1)"></circle>
        <circle r="5" cx="1456.12" cy="520.67" fill="rgba(217, 217, 218, 1)"></circle>
        <circle r="5" cx="1408.19" cy="639.01" fill="rgba(217, 217, 218, 1)"></circle>
        <circle r="5" cx="1572.86" cy="-99.27" fill="rgba(217, 217, 218, 1)"></circle>
        <circle r="5" cx="1609.97" cy="257.91" fill="rgba(217, 217, 218, 1)"></circle>
        <circle r="5" cx="1560.41" cy="364.57" fill="rgba(217, 217, 218, 1)"></circle>
        <circle r="5" cx="1562.11" cy="512.38" fill="rgba(217, 217, 218, 1)"></circle>
        <circle r="5" cx="1574.87" cy="665.15" fill="rgba(217, 217, 218, 1)"></circle>
        <path d="M196.48 501.1L196.48 501.1" stroke="hsl(263.29999999999995, 80.9%, 47.9%)" stroke-width="1.5"></path>
        <path d="M196.48 501.1L101.47 511.88" stroke="hsl(263.29999999999995, 80.9%, 47.9%)" stroke-width="1.5"></path>
        <path d="M196.48 501.1L361.43 488.94" stroke="hsl(263.29999999999995, 80.9%, 47.9%)" stroke-width="1.5"></path>
        <path d="M487.79 521.65L487.79 521.65" stroke="hsl(263.29999999999995, 80.9%, 47.9%)" stroke-width="1.5"></path>
        <path d="M487.79 521.65L361.43 488.94" stroke="hsl(263.29999999999995, 80.9%, 47.9%)" stroke-width="1.5"></path>
        <path d="M487.79 521.65L540.33 702.78" stroke="hsl(263.29999999999995, 80.9%, 47.9%)" stroke-width="1.5"></path>
        <path d="M487.79 521.65L674.27 550.98" stroke="hsl(263.29999999999995, 80.9%, 47.9%)" stroke-width="1.5"></path>
        <path d="M840.61 496.61L840.61 496.61" stroke="hsl(263.29999999999995, 80.9%, 47.9%)" stroke-width="1.5"></path>
        <path d="M840.61 496.61L828.96 393.02" stroke="hsl(263.29999999999995, 80.9%, 47.9%)" stroke-width="1.5"></path>
        <path d="M840.61 496.61L978.86 531" stroke="hsl(263.29999999999995, 80.9%, 47.9%)" stroke-width="1.5"></path>
        <path d="M840.61 496.61L674.27 550.98" stroke="hsl(263.29999999999995, 80.9%, 47.9%)" stroke-width="1.5"></path>
        <path d="M807.53 695.3L807.53 695.3" stroke="hsl(263.29999999999995, 80.9%, 47.9%)" stroke-width="1.5"></path>
        <path d="M807.53 695.3L971.74 639.88" stroke="hsl(263.29999999999995, 80.9%, 47.9%)" stroke-width="1.5"></path>
        <path d="M807.53 695.3L674.27 550.98" stroke="hsl(263.29999999999995, 80.9%, 47.9%)" stroke-width="1.5"></path>
        <path d="M807.53 695.3L840.61 496.61" stroke="hsl(263.29999999999995, 80.9%, 47.9%)" stroke-width="1.5"></path>
        <path d="M807.53 695.3L978.86 531" stroke="hsl(263.29999999999995, 80.9%, 47.9%)" stroke-width="1.5"></path>
        <path d="M807.53 695.3L540.33 702.78" stroke="hsl(263.29999999999995, 80.9%, 47.9%)" stroke-width="1.5"></path>
        <path d="M1108.18 193.77L1108.18 193.77" stroke="hsl(263.29999999999995, 80.9%, 47.9%)" stroke-width="1.5">
        </path>
        <path d="M1108.18 193.77L994.38 234.99" stroke="hsl(263.29999999999995, 80.9%, 47.9%)" stroke-width="1.5">
        </path>
        <path d="M1108.18 193.77L1245.62 82.85" stroke="hsl(263.29999999999995, 80.9%, 47.9%)" stroke-width="1.5">
        </path>
        <path d="M1108.18 193.77L1310.3 243.14" stroke="hsl(263.29999999999995, 80.9%, 47.9%)" stroke-width="1.5">
        </path>
        <path d="M1108.18 193.77L1001.52 385.06" stroke="hsl(263.29999999999995, 80.9%, 47.9%)" stroke-width="1.5">
        </path>
        <path d="M1108.18 193.77L1276.42 379.7" stroke="hsl(263.29999999999995, 80.9%, 47.9%)" stroke-width="1.5">
        </path>
        <path d="M1108.18 193.77L1391.49 227.3" stroke="hsl(263.29999999999995, 80.9%, 47.9%)" stroke-width="1.5">
        </path>
        <path d="M1141.45 552.22L1141.45 552.22" stroke="hsl(263.29999999999995, 80.9%, 47.9%)" stroke-width="1.5">
        </path>
        <path d="M1141.45 552.22L1271.64 507.86" stroke="hsl(263.29999999999995, 80.9%, 47.9%)" stroke-width="1.5">
        </path>
        <path d="M1141.45 552.22L1140.08 708.37" stroke="hsl(263.29999999999995, 80.9%, 47.9%)" stroke-width="1.5">
        </path>
        <path d="M1141.45 552.22L978.86 531" stroke="hsl(263.29999999999995, 80.9%, 47.9%)" stroke-width="1.5"></path>
        <path d="M1141.45 552.22L1242.68 700.63" stroke="hsl(263.29999999999995, 80.9%, 47.9%)" stroke-width="1.5">
        </path>
        <path d="M1141.45 552.22L971.74 639.88" stroke="hsl(263.29999999999995, 80.9%, 47.9%)" stroke-width="1.5">
        </path>
        <path d="M1141.45 552.22L1001.52 385.06" stroke="hsl(263.29999999999995, 80.9%, 47.9%)" stroke-width="1.5">
        </path>
        <path d="M1140.08 708.37L1140.08 708.37" stroke="hsl(263.29999999999995, 80.9%, 47.9%)" stroke-width="1.5">
        </path>
        <path d="M1140.08 708.37L1242.68 700.63" stroke="hsl(263.29999999999995, 80.9%, 47.9%)" stroke-width="1.5">
        </path>
        <path d="M1140.08 708.37L971.74 639.88" stroke="hsl(263.29999999999995, 80.9%, 47.9%)" stroke-width="1.5">
        </path>
        <path d="M1140.08 708.37L978.86 531" stroke="hsl(263.29999999999995, 80.9%, 47.9%)" stroke-width="1.5"></path>
        <path d="M1140.08 708.37L1271.64 507.86" stroke="hsl(263.29999999999995, 80.9%, 47.9%)" stroke-width="1.5">
        </path>
        <path d="M1140.08 708.37L1411.39 644.6" stroke="hsl(263.29999999999995, 80.9%, 47.9%)" stroke-width="1.5">
        </path>
        <path d="M1245.62 82.85L1245.62 82.85" stroke="hsl(263.29999999999995, 80.9%, 47.9%)" stroke-width="1.5"></path>
        <path d="M1245.62 82.85L1295.22 -69.61" stroke="hsl(263.29999999999995, 80.9%, 47.9%)" stroke-width="1.5">
        </path>
        <path d="M1245.62 82.85L1414.07 62.6" stroke="hsl(263.29999999999995, 80.9%, 47.9%)" stroke-width="1.5"></path>
        <path d="M1245.62 82.85L1310.3 243.14" stroke="hsl(263.29999999999995, 80.9%, 47.9%)" stroke-width="1.5"></path>
        <path d="M1439.24 -81.15L1439.24 -81.15" stroke="hsl(263.29999999999995, 80.9%, 47.9%)" stroke-width="1.5">
        </path>
        <path d="M1439.24 -81.15L1541.28 -78.85" stroke="hsl(263.29999999999995, 80.9%, 47.9%)" stroke-width="1.5">
        </path>
        <path d="M1439.24 -81.15L1295.22 -69.61" stroke="hsl(263.29999999999995, 80.9%, 47.9%)" stroke-width="1.5">
        </path>
        <path d="M1439.24 -81.15L1414.07 62.6" stroke="hsl(263.29999999999995, 80.9%, 47.9%)" stroke-width="1.5"></path>
        <path d="M1391.49 227.3L1391.49 227.3" stroke="hsl(263.29999999999995, 80.9%, 47.9%)" stroke-width="1.5"></path>
        <path d="M1391.49 227.3L1310.3 243.14" stroke="hsl(263.29999999999995, 80.9%, 47.9%)" stroke-width="1.5"></path>
        <path d="M1391.49 227.3L1439.98 349.58" stroke="hsl(263.29999999999995, 80.9%, 47.9%)" stroke-width="1.5">
        </path>
        <path d="M1391.49 227.3L1414.07 62.6" stroke="hsl(263.29999999999995, 80.9%, 47.9%)" stroke-width="1.5"></path>
        <path d="M1391.49 227.3L1276.42 379.7" stroke="hsl(263.29999999999995, 80.9%, 47.9%)" stroke-width="1.5"></path>
        <path d="M1391.49 227.3L1593.74 204.92" stroke="hsl(263.29999999999995, 80.9%, 47.9%)" stroke-width="1.5">
        </path>
        <path d="M1391.49 227.3L1245.62 82.85" stroke="hsl(263.29999999999995, 80.9%, 47.9%)" stroke-width="1.5"></path>
        <path d="M1549.45 361.26L1549.45 361.26" stroke="hsl(263.29999999999995, 80.9%, 47.9%)" stroke-width="1.5">
        </path>
        <path d="M1549.45 361.26L1439.98 349.58" stroke="hsl(263.29999999999995, 80.9%, 47.9%)" stroke-width="1.5">
        </path>
        <path d="M1549.45 361.26L1593.74 204.92" stroke="hsl(263.29999999999995, 80.9%, 47.9%)" stroke-width="1.5">
        </path>
        <path d="M-99.41 509.82L-99.41 509.82" stroke="hsl(263.29999999999995, 80.9%, 47.9%)" stroke-width="1.5"></path>
        <path d="M-99.41 509.82L-96.03 647.37" stroke="hsl(263.29999999999995, 80.9%, 47.9%)" stroke-width="1.5"></path>
        <path d="M-99.41 509.82L101.47 511.88" stroke="hsl(263.29999999999995, 80.9%, 47.9%)" stroke-width="1.5"></path>
        <path d="M-99.41 509.82L196.48 501.1" stroke="hsl(263.29999999999995, 80.9%, 47.9%)" stroke-width="1.5"></path>
        <path d="M-99.41 509.82L198.52 686.42" stroke="hsl(263.29999999999995, 80.9%, 47.9%)" stroke-width="1.5"></path>
        <path d="M-99.41 509.82L361.43 488.94" stroke="hsl(263.29999999999995, 80.9%, 47.9%)" stroke-width="1.5"></path>
        <path d="M-99.41 509.82L338.67 684.14" stroke="hsl(263.29999999999995, 80.9%, 47.9%)" stroke-width="1.5"></path>
        <path d="M-96.03 647.37L-96.03 647.37" stroke="hsl(263.29999999999995, 80.9%, 47.9%)" stroke-width="1.5"></path>
        <path d="M-96.03 647.37L101.47 511.88" stroke="hsl(263.29999999999995, 80.9%, 47.9%)" stroke-width="1.5"></path>
        <path d="M-96.03 647.37L198.52 686.42" stroke="hsl(263.29999999999995, 80.9%, 47.9%)" stroke-width="1.5"></path>
        <path d="M-96.03 647.37L196.48 501.1" stroke="hsl(263.29999999999995, 80.9%, 47.9%)" stroke-width="1.5"></path>
        <path d="M-96.03 647.37L338.67 684.14" stroke="hsl(263.29999999999995, 80.9%, 47.9%)" stroke-width="1.5"></path>
        <path d="M101.47 511.88L101.47 511.88" stroke="hsl(263.29999999999995, 80.9%, 47.9%)" stroke-width="1.5"></path>
        <path d="M101.47 511.88L198.52 686.42" stroke="hsl(263.29999999999995, 80.9%, 47.9%)" stroke-width="1.5"></path>
        <path d="M198.52 686.42L198.52 686.42" stroke="hsl(263.29999999999995, 80.9%, 47.9%)" stroke-width="1.5"></path>
        <path d="M198.52 686.42L338.67 684.14" stroke="hsl(263.29999999999995, 80.9%, 47.9%)" stroke-width="1.5"></path>
        <path d="M198.52 686.42L196.48 501.1" stroke="hsl(263.29999999999995, 80.9%, 47.9%)" stroke-width="1.5"></path>
        <path d="M198.52 686.42L361.43 488.94" stroke="hsl(263.29999999999995, 80.9%, 47.9%)" stroke-width="1.5"></path>
        <path d="M198.52 686.42L487.79 521.65" stroke="hsl(263.29999999999995, 80.9%, 47.9%)" stroke-width="1.5"></path>
        <path d="M361.43 488.94L361.43 488.94" stroke="hsl(263.29999999999995, 80.9%, 47.9%)" stroke-width="1.5"></path>
        <path d="M361.43 488.94L338.67 684.14" stroke="hsl(263.29999999999995, 80.9%, 47.9%)" stroke-width="1.5"></path>
        <path d="M338.67 684.14L338.67 684.14" stroke="hsl(263.29999999999995, 80.9%, 47.9%)" stroke-width="1.5"></path>
        <path d="M338.67 684.14L540.33 702.78" stroke="hsl(263.29999999999995, 80.9%, 47.9%)" stroke-width="1.5"></path>
        <path d="M338.67 684.14L487.79 521.65" stroke="hsl(263.29999999999995, 80.9%, 47.9%)" stroke-width="1.5"></path>
        <path d="M338.67 684.14L196.48 501.1" stroke="hsl(263.29999999999995, 80.9%, 47.9%)" stroke-width="1.5"></path>
        <path d="M540.33 702.78L540.33 702.78" stroke="hsl(263.29999999999995, 80.9%, 47.9%)" stroke-width="1.5"></path>
        <path d="M540.33 702.78L674.27 550.98" stroke="hsl(263.29999999999995, 80.9%, 47.9%)" stroke-width="1.5"></path>
        <path d="M540.33 702.78L361.43 488.94" stroke="hsl(263.29999999999995, 80.9%, 47.9%)" stroke-width="1.5"></path>
        <path d="M540.33 702.78L198.52 686.42" stroke="hsl(263.29999999999995, 80.9%, 47.9%)" stroke-width="1.5"></path>
        <path d="M674.27 550.98L674.27 550.98" stroke="hsl(263.29999999999995, 80.9%, 47.9%)" stroke-width="1.5"></path>
        <path d="M828.96 393.02L828.96 393.02" stroke="hsl(263.29999999999995, 80.9%, 47.9%)" stroke-width="1.5"></path>
        <path d="M828.96 393.02L1001.52 385.06" stroke="hsl(263.29999999999995, 80.9%, 47.9%)" stroke-width="1.5">
        </path>
        <path d="M828.96 393.02L978.86 531" stroke="hsl(263.29999999999995, 80.9%, 47.9%)" stroke-width="1.5"></path>
        <path d="M828.96 393.02L674.27 550.98" stroke="hsl(263.29999999999995, 80.9%, 47.9%)" stroke-width="1.5"></path>
        <path d="M828.96 393.02L994.38 234.99" stroke="hsl(263.29999999999995, 80.9%, 47.9%)" stroke-width="1.5"></path>
        <path d="M828.96 393.02L971.74 639.88" stroke="hsl(263.29999999999995, 80.9%, 47.9%)" stroke-width="1.5"></path>
        <path d="M994.38 234.99L994.38 234.99" stroke="hsl(263.29999999999995, 80.9%, 47.9%)" stroke-width="1.5"></path>
        <path d="M994.38 234.99L1001.52 385.06" stroke="hsl(263.29999999999995, 80.9%, 47.9%)" stroke-width="1.5">
        </path>
        <path d="M994.38 234.99L1245.62 82.85" stroke="hsl(263.29999999999995, 80.9%, 47.9%)" stroke-width="1.5"></path>
        <path d="M994.38 234.99L978.86 531" stroke="hsl(263.29999999999995, 80.9%, 47.9%)" stroke-width="1.5"></path>
        <path d="M1001.52 385.06L1001.52 385.06" stroke="hsl(263.29999999999995, 80.9%, 47.9%)" stroke-width="1.5">
        </path>
        <path d="M1001.52 385.06L978.86 531" stroke="hsl(263.29999999999995, 80.9%, 47.9%)" stroke-width="1.5"></path>
        <path d="M1001.52 385.06L840.61 496.61" stroke="hsl(263.29999999999995, 80.9%, 47.9%)" stroke-width="1.5">
        </path>
        <path d="M978.86 531L978.86 531" stroke="hsl(263.29999999999995, 80.9%, 47.9%)" stroke-width="1.5"></path>
        <path d="M978.86 531L971.74 639.88" stroke="hsl(263.29999999999995, 80.9%, 47.9%)" stroke-width="1.5"></path>
        <path d="M971.74 639.88L971.74 639.88" stroke="hsl(263.29999999999995, 80.9%, 47.9%)" stroke-width="1.5"></path>
        <path d="M1295.22 -69.61L1295.22 -69.61" stroke="hsl(263.29999999999995, 80.9%, 47.9%)" stroke-width="1.5">
        </path>
        <path d="M1295.22 -69.61L1414.07 62.6" stroke="hsl(263.29999999999995, 80.9%, 47.9%)" stroke-width="1.5"></path>
        <path d="M1295.22 -69.61L1541.28 -78.85" stroke="hsl(263.29999999999995, 80.9%, 47.9%)" stroke-width="1.5">
        </path>
        <path d="M1310.3 243.14L1310.3 243.14" stroke="hsl(263.29999999999995, 80.9%, 47.9%)" stroke-width="1.5"></path>
        <path d="M1310.3 243.14L1276.42 379.7" stroke="hsl(263.29999999999995, 80.9%, 47.9%)" stroke-width="1.5"></path>
        <path d="M1310.3 243.14L1439.98 349.58" stroke="hsl(263.29999999999995, 80.9%, 47.9%)" stroke-width="1.5">
        </path>
        <path d="M1276.42 379.7L1276.42 379.7" stroke="hsl(263.29999999999995, 80.9%, 47.9%)" stroke-width="1.5"></path>
        <path d="M1276.42 379.7L1271.64 507.86" stroke="hsl(263.29999999999995, 80.9%, 47.9%)" stroke-width="1.5">
        </path>
        <path d="M1271.64 507.86L1271.64 507.86" stroke="hsl(263.29999999999995, 80.9%, 47.9%)" stroke-width="1.5">
        </path>
        <path d="M1271.64 507.86L1400.63 490.22" stroke="hsl(263.29999999999995, 80.9%, 47.9%)" stroke-width="1.5">
        </path>
        <path d="M1242.68 700.63L1242.68 700.63" stroke="hsl(263.29999999999995, 80.9%, 47.9%)" stroke-width="1.5">
        </path>
        <path d="M1242.68 700.63L1411.39 644.6" stroke="hsl(263.29999999999995, 80.9%, 47.9%)" stroke-width="1.5">
        </path>
        <path d="M1242.68 700.63L1271.64 507.86" stroke="hsl(263.29999999999995, 80.9%, 47.9%)" stroke-width="1.5">
        </path>
        <path d="M1242.68 700.63L1400.63 490.22" stroke="hsl(263.29999999999995, 80.9%, 47.9%)" stroke-width="1.5">
        </path>
        <path d="M1414.07 62.6L1414.07 62.6" stroke="hsl(263.29999999999995, 80.9%, 47.9%)" stroke-width="1.5"></path>
        <path d="M1414.07 62.6L1541.28 -78.85" stroke="hsl(263.29999999999995, 80.9%, 47.9%)" stroke-width="1.5"></path>
        <path d="M1439.98 349.58L1439.98 349.58" stroke="hsl(263.29999999999995, 80.9%, 47.9%)" stroke-width="1.5">
        </path>
        <path d="M1439.98 349.58L1400.63 490.22" stroke="hsl(263.29999999999995, 80.9%, 47.9%)" stroke-width="1.5">
        </path>
        <path d="M1439.98 349.58L1276.42 379.7" stroke="hsl(263.29999999999995, 80.9%, 47.9%)" stroke-width="1.5">
        </path>
        <path d="M1439.98 349.58L1593.74 204.92" stroke="hsl(263.29999999999995, 80.9%, 47.9%)" stroke-width="1.5">
        </path>
        <path d="M1400.63 490.22L1400.63 490.22" stroke="hsl(263.29999999999995, 80.9%, 47.9%)" stroke-width="1.5">
        </path>
        <path d="M1411.39 644.6L1411.39 644.6" stroke="hsl(263.29999999999995, 80.9%, 47.9%)" stroke-width="1.5"></path>
        <path d="M1411.39 644.6L1400.63 490.22" stroke="hsl(263.29999999999995, 80.9%, 47.9%)" stroke-width="1.5">
        </path>
        <path d="M1411.39 644.6L1600.13 661.67" stroke="hsl(263.29999999999995, 80.9%, 47.9%)" stroke-width="1.5">
        </path>
        <path d="M1411.39 644.6L1271.64 507.86" stroke="hsl(263.29999999999995, 80.9%, 47.9%)" stroke-width="1.5">
        </path>
        <path d="M1411.39 644.6L1141.45 552.22" stroke="hsl(263.29999999999995, 80.9%, 47.9%)" stroke-width="1.5">
        </path>
        <path d="M1541.28 -78.85L1541.28 -78.85" stroke="hsl(263.29999999999995, 80.9%, 47.9%)" stroke-width="1.5">
        </path>
        <path d="M1541.28 -78.85L1611.13 80.12" stroke="hsl(263.29999999999995, 80.9%, 47.9%)" stroke-width="1.5">
        </path>
        <path d="M1611.13 80.12L1611.13 80.12" stroke="hsl(263.29999999999995, 80.9%, 47.9%)" stroke-width="1.5"></path>
        <path d="M1611.13 80.12L1593.74 204.92" stroke="hsl(263.29999999999995, 80.9%, 47.9%)" stroke-width="1.5">
        </path>
        <path d="M1611.13 80.12L1414.07 62.6" stroke="hsl(263.29999999999995, 80.9%, 47.9%)" stroke-width="1.5"></path>
        <path d="M1611.13 80.12L1439.24 -81.15" stroke="hsl(263.29999999999995, 80.9%, 47.9%)" stroke-width="1.5">
        </path>
        <path d="M1611.13 80.12L1391.49 227.3" stroke="hsl(263.29999999999995, 80.9%, 47.9%)" stroke-width="1.5"></path>
        <path d="M1611.13 80.12L1549.45 361.26" stroke="hsl(263.29999999999995, 80.9%, 47.9%)" stroke-width="1.5">
        </path>
        <path d="M1593.74 204.92L1593.74 204.92" stroke="hsl(263.29999999999995, 80.9%, 47.9%)" stroke-width="1.5">
        </path>
        <path d="M1593.74 204.92L1414.07 62.6" stroke="hsl(263.29999999999995, 80.9%, 47.9%)" stroke-width="1.5"></path>
        <path d="M1600.13 661.67L1600.13 661.67" stroke="hsl(263.29999999999995, 80.9%, 47.9%)" stroke-width="1.5">
        </path>
        <path d="M1600.13 661.67L1400.63 490.22" stroke="hsl(263.29999999999995, 80.9%, 47.9%)" stroke-width="1.5">
        </path>
        <path d="M1600.13 661.67L1549.45 361.26" stroke="hsl(263.29999999999995, 80.9%, 47.9%)" stroke-width="1.5">
        </path>
        <path d="M1600.13 661.67L1439.98 349.58" stroke="hsl(263.29999999999995, 80.9%, 47.9%)" stroke-width="1.5">
        </path>
        <path d="M1600.13 661.67L1242.68 700.63" stroke="hsl(263.29999999999995, 80.9%, 47.9%)" stroke-width="1.5">
        </path>
        <path d="M1600.13 661.67L1271.64 507.86" stroke="hsl(263.29999999999995, 80.9%, 47.9%)" stroke-width="1.5">
        </path>
        <circle r="25" cx="196.48" cy="501.1" fill="url(&quot;#SvgjsRadialGradient1007&quot;)"></circle>
        <circle r="25" cx="487.79" cy="521.65" fill="url(&quot;#SvgjsRadialGradient1007&quot;)"></circle>
        <circle r="25" cx="840.61" cy="496.61" fill="url(&quot;#SvgjsRadialGradient1007&quot;)"></circle>
        <circle r="25" cx="807.53" cy="695.3" fill="url(&quot;#SvgjsRadialGradient1007&quot;)"></circle>
        <circle r="25" cx="1108.18" cy="193.77" fill="url(&quot;#SvgjsRadialGradient1007&quot;)"></circle>
        <circle r="25" cx="1141.45" cy="552.22" fill="url(&quot;#SvgjsRadialGradient1007&quot;)"></circle>
        <circle r="25" cx="1140.08" cy="708.37" fill="url(&quot;#SvgjsRadialGradient1007&quot;)"></circle>
        <circle r="25" cx="1245.62" cy="82.85" fill="url(&quot;#SvgjsRadialGradient1007&quot;)"></circle>
        <circle r="25" cx="1439.24" cy="-81.15" fill="url(&quot;#SvgjsRadialGradient1007&quot;)"></circle>
        <circle r="25" cx="1391.49" cy="227.3" fill="url(&quot;#SvgjsRadialGradient1007&quot;)"></circle>
        <circle r="25" cx="1549.45" cy="361.26" fill="url(&quot;#SvgjsRadialGradient1007&quot;)"></circle>
        <circle r="5" cx="-99.41" cy="509.82" fill="#a689d5"></circle>
        <circle r="5" cx="-96.03" cy="647.37" fill="#a689d5"></circle>
        <circle r="5" cx="101.47" cy="511.88" fill="#a689d5"></circle>
        <circle r="5" cx="198.52" cy="686.42" fill="#a689d5"></circle>
        <circle r="5" cx="361.43" cy="488.94" fill="#a689d5"></circle>
        <circle r="5" cx="338.67" cy="684.14" fill="#a689d5"></circle>
        <circle r="5" cx="540.33" cy="702.78" fill="#a689d5"></circle>
        <circle r="5" cx="674.27" cy="550.98" fill="#a689d5"></circle>
        <circle r="5" cx="828.96" cy="393.02" fill="#a689d5"></circle>
        <circle r="5" cx="994.38" cy="234.99" fill="#a689d5"></circle>
        <circle r="5" cx="1001.52" cy="385.06" fill="#a689d5"></circle>
        <circle r="5" cx="978.86" cy="531" fill="#a689d5"></circle>
        <circle r="5" cx="971.74" cy="639.88" fill="#a689d5"></circle>
        <circle r="5" cx="1295.22" cy="-69.61" fill="#a689d5"></circle>
        <circle r="5" cx="1310.3" cy="243.14" fill="#a689d5"></circle>
        <circle r="5" cx="1276.42" cy="379.7" fill="#a689d5"></circle>
        <circle r="5" cx="1271.64" cy="507.86" fill="#a689d5"></circle>
        <circle r="5" cx="1242.68" cy="700.63" fill="#a689d5"></circle>
        <circle r="5" cx="1414.07" cy="62.6" fill="#a689d5"></circle>
        <circle r="5" cx="1439.98" cy="349.58" fill="#a689d5"></circle>
        <circle r="5" cx="1400.63" cy="490.22" fill="#a689d5"></circle>
        <circle r="5" cx="1411.39" cy="644.6" fill="#a689d5"></circle>
        <circle r="5" cx="1541.28" cy="-78.85" fill="#a689d5"></circle>
        <circle r="5" cx="1611.13" cy="80.12" fill="#a689d5"></circle>
        <circle r="5" cx="1593.74" cy="204.92" fill="#a689d5"></circle>
        <circle r="5" cx="1600.13" cy="661.67" fill="#a689d5"></circle>
    </g>
    <defs>
        <mask id="SvgjsMask1006">
            <rect width="1440" height="560" fill="#ffffff"></rect>
        </mask>
        <radialGradient id="SvgjsRadialGradient1007">
            <stop stop-color="#ffffff" offset="0.1"></stop>
            <stop stop-color="rgba(77, 18, 170, 1)" offset="0.2"></stop>
            <stop stop-color="rgba(77, 18, 170, 0)" offset="1"></stop>
        </radialGradient>
    </defs>
</svg>